<svg width="44" height="12" viewBox="0 0 44 12" fill="none" xmlns="http://www.w3.org/2000/svg">
<path fill-rule="evenodd" clip-rule="evenodd" d="M6 12C9.31371 12 12 9.31371 12 6C12 2.68629 9.31371 0 6 0C2.68629 0 0 2.68629 0 6C0 9.31371 2.68629 12 6 12ZM28 6C28 9.31371 25.3137 12 22 12C18.6863 12 16 9.31371 16 6C16 2.68629 18.6863 0 22 0C25.3137 0 28 2.68629 28 6ZM44 6C44 9.31371 41.3137 12 38 12C34.6863 12 32 9.31371 32 6C32 2.68629 34.6863 0 38 0C41.3137 0 44 2.68629 44 6Z" fill="black"/>
</svg>
