<svg width="12" height="44" viewBox="0 0 12 44" fill="none" xmlns="http://www.w3.org/2000/svg">
<path fill-rule="evenodd" clip-rule="evenodd" d="M-2.62268e-07 6C-4.07115e-07 9.31371 2.68629 12 6 12C9.31371 12 12 9.31371 12 6C12 2.68629 9.31371 -1.17422e-07 6 -2.62268e-07C2.68629 -4.07115e-07 -1.17422e-07 2.68629 -2.62268e-07 6ZM6 28C2.68629 28 -1.1065e-06 25.3137 -9.61651e-07 22C-8.16804e-07 18.6863 2.68629 16 6 16C9.31371 16 12 18.6863 12 22C12 25.3137 9.31371 28 6 28ZM6 44C2.68629 44 -1.80588e-06 41.3137 -1.66103e-06 38C-1.51619e-06 34.6863 2.68629 32 6 32C9.31371 32 12 34.6863 12 38C12 41.3137 9.31371 44 6 44Z" fill="black"/>
</svg>
